Coordinates
version=1
nRows=32
nColumns=12
inDegrees=yes

Units are S.I. units (second, meters, Newtons, ...)
Angles are in degrees

endheader
time	SC_y	SC_z	SC_x	AC_y	AC_z	AC_x	GH_y	GH_z	GH_yy	EL_x	PS_y
       0.0              -37.64          22.22          19.01           37.1         -10.39          4.651         -145.5          80.92         -137.3          130.5          110.0
   0.03111              -37.64          22.22          19.01           37.1         -10.39          4.652         -145.5           80.9         -137.3          130.5          110.0
   0.06222              -37.64          22.22          19.01           37.1         -10.39          4.653         -145.5          80.89         -137.3          130.5          110.0
   0.09334              -37.65          22.22          19.01          37.11         -10.39          4.654         -145.4          80.87         -137.3          130.5          110.0
    0.1244              -37.65          22.22          19.01          37.11         -10.39          4.654         -145.4          80.85         -137.3          130.5          110.0
    0.1556              -37.65          22.21          19.01          37.11         -10.39          4.655         -145.4          80.84         -137.3          130.5          110.0
    0.1867              -37.66          22.21           19.0          37.11         -10.39          4.656         -145.3          80.82         -137.3          130.5          110.0
    0.2178              -37.66          22.21           19.0          37.11         -10.39          4.658         -145.3           80.8         -137.3          130.5          110.0
    0.2489              -37.66          22.21           19.0          37.11         -10.39          4.659         -145.2          80.77         -137.3          130.5          110.0
      0.28              -37.67           22.2           19.0          37.11         -10.39           4.66         -145.2          80.75         -137.3          130.5          110.0
    0.3111              -37.67           22.2           19.0          37.12         -10.39          4.661         -145.1          80.72         -137.3          130.5          110.0
    0.3422              -37.68           22.2           19.0          37.12         -10.39          4.663         -145.0           80.7         -137.3          130.5          110.0
    0.3733              -37.68          22.19           19.0          37.12         -10.39          4.664         -145.0          80.67         -137.3          130.5          110.0
    0.4045              -37.69          22.19          18.99          37.12         -10.39          4.666         -144.9          80.63         -137.3          130.4          110.0
    0.4356              -37.69          22.19          18.99          37.13         -10.39          4.668         -144.8           80.6         -137.3          130.4          110.0
    0.4667               -37.7          22.18          18.99          37.13         -10.39           4.67         -144.8          80.56         -137.3          130.4          110.0
    0.4978              -37.71          22.18          18.99          37.13         -10.39          4.672         -144.7          80.52         -137.3          130.4          110.0
    0.5289              -37.72          22.17          18.99          37.13         -10.39          4.674         -144.6          80.48         -137.3          130.4          109.9
      0.56              -37.72          22.16          18.98          37.14         -10.39          4.677         -144.5          80.43         -137.3          130.4          109.9
    0.5911              -37.73          22.16          18.98          37.14         -10.39           4.68         -144.3          80.37         -137.3          130.4          109.9
    0.6222              -37.74          22.15          18.98          37.14         -10.39          4.683         -144.2          80.32         -137.2          130.3          109.9
    0.6534              -37.76          22.14          18.97          37.15          -10.4          4.686         -144.1          80.25         -137.2          130.3          109.9
    0.6845              -37.77          22.13          18.97          37.15          -10.4           4.69         -143.9          80.18         -137.2          130.3          109.9
    0.7156              -37.78          22.12          18.97          37.16          -10.4          4.694         -143.7           80.1         -137.2          130.3          109.9
    0.7467               -37.8          22.11          18.96          37.17          -10.4          4.699         -143.5          80.01         -137.2          130.2          109.8
    0.7778              -37.82           22.1          18.95          37.17          -10.4          4.704         -143.3          79.91         -137.2          130.2          109.8
    0.8089              -37.84          22.09          18.95          37.18          -10.4           4.71         -143.1          79.81         -137.2          130.2          109.8
      0.84              -37.86          22.07          18.94          37.19          -10.4          4.717         -142.8          79.68         -137.2          130.1          109.8
    0.8711              -37.88          22.05          18.93           37.2         -10.41          4.724         -142.5          79.54         -137.1          130.1          109.7
    0.9022              -37.91          22.03          18.93          37.21         -10.41          4.732         -142.2          79.38         -137.1          130.0          109.7
    0.9334              -37.94          22.01          18.92          37.22         -10.41          4.742         -141.8           79.2         -137.1          130.0          109.7
    0.9645              -37.98          21.99           18.9          37.24         -10.41          4.753         -141.3           79.0         -137.1          129.9          109.6
